<svg xmlns="http://www.w3.org/2000/svg" width="16" height="16" fill="currentColor" class="bi bi-twitter-x" viewBox="0 0 16 16">
  <path d="M12.6.75h2.454l-5.36 6.142L16 15.25h-4.937l-3.867-5.07-4.425 5.07H.316l5.733-6.57L0 .75h5.063l3.495 4.633L12.601.75Zm-.86 13.028h1.36L4.323 2.145H2.865z"/>
</svg>


<svg xmlns="http://www.w3.org/2000/svg" width="1em" height="1em" viewBox="0 0 24 24"><path fill="currentColor" d="M13.795 10.533L20.68 2h-3.073l-5.255 6.517L7.69 2H1l7.806 10.91L1.47 22h3.074l5.705-7.07L15.31 22H22zm-2.38 2.95L9.97 11.464L4.36 3.627h2.31l4.528 6.317l1.443 2.02l6.018 8.409h-2.31z"/></svg>